<?xml version="1.0" standalone="no"?>
<!DOCTYPE svg PUBLIC "-//W3C//DTD SVG 20010904//EN"
 "http://www.w3.org/TR/2001/REC-SVG-20010904/DTD/svg10.dtd">
<svg version="1.0" xmlns="http://www.w3.org/2000/svg"
 width="1024.000000pt" height="1024.000000pt" viewBox="0 0 1024.000000 1024.000000"
 preserveAspectRatio="xMidYMid meet">

<g transform="translate(0.000000,1024.000000) scale(0.100000,-0.100000)"
fill="#000000" stroke="none">
<path d="M6935 8153 c-323 -70 -583 -164 -826 -299 -77 -43 -156 -92 -176
-109 l-37 -32 -66 30 c-107 48 -277 87 -435 98 -270 18 -594 -25 -767 -103
l-46 -21 -39 33 c-47 39 -261 155 -391 210 -226 97 -564 190 -692 190 -54 0
-102 -27 -129 -71 -29 -47 -46 -209 -45 -414 2 -339 63 -617 208 -950 l63
-145 -19 -82 c-11 -52 -21 -146 -25 -250 l-6 -167 -258 -3 -259 -3 -31 -31
c-57 -57 -42 -158 27 -184 29 -12 414 -12 492 -1 51 7 53 7 58 -18 21 -94 58
-219 83 -278 51 -116 160 -315 216 -388 152 -203 293 -327 520 -460 316 -184
586 -254 935 -242 268 10 461 58 696 172 228 112 438 282 606 490 127 158 246
392 298 590 35 132 38 140 61 139 13 -1 138 -5 277 -9 284 -9 273 -11 313 67
24 47 24 65 -1 105 -29 47 -64 53 -346 53 l-252 0 5 84 c6 94 -10 278 -33 373
-15 60 -15 64 4 91 56 77 170 419 206 614 40 217 51 417 33 644 -16 212 -22
231 -88 265 -36 18 -87 23 -134 12z m-3220 -279 c174 -42 363 -113 488 -183
49 -28 97 -53 108 -56 28 -9 24 -18 -23 -51 -219 -155 -484 -445 -576 -631
-20 -40 -39 -73 -43 -73 -10 0 -25 42 -63 177 -41 143 -62 249 -76 392 -11
109 -14 429 -4 454 3 8 13 13 22 11 9 -2 85 -20 167 -40z m3213 -139 c3 -199
-12 -358 -55 -560 -27 -129 -74 -277 -89 -282 -6 -2 -16 14 -23 34 -22 61
-163 260 -252 356 -82 88 -275 261 -336 301 -18 12 -33 23 -33 26 0 8 109 75
176 108 149 75 364 150 559 195 50 12 50 14 53 -178z m-1428 -129 c318 -58
581 -195 790 -413 154 -160 260 -316 326 -481 33 -82 79 -265 89 -350 7 -62 7
-63 -16 -58 -13 3 -105 22 -204 41 -271 55 -541 131 -675 193 -403 184 -561
283 -759 476 -151 149 -246 262 -298 356 -20 36 -47 79 -60 97 -12 17 -23 36
-23 41 0 32 279 110 399 111 41 0 77 4 80 7 10 11 260 -4 351 -20z m-1050
-228 c11 -18 20 -44 20 -58 0 -50 -105 -277 -167 -362 -19 -26 -56 -81 -83
-122 -81 -124 -259 -314 -402 -430 -63 -51 -81 -57 -73 -23 3 12 12 55 20 96
52 253 183 491 387 702 75 78 256 228 276 229 1 0 11 -15 22 -32z m210 -288
c0 -23 243 -259 361 -351 317 -246 647 -417 984 -509 105 -28 225 -63 267 -76
91 -28 261 -67 368 -85 41 -6 78 -15 83 -19 4 -3 0 -43 -8 -87 -44 -234 -134
-454 -263 -648 -75 -113 -255 -299 -353 -365 -84 -58 -249 -141 -355 -179
-249 -91 -526 -110 -809 -56 -359 69 -705 286 -916 575 -70 95 -86 122 -147
246 -63 125 -87 200 -112 338 -28 156 -27 172 13 192 99 51 449 389 576 558
45 60 130 191 188 292 95 166 123 205 123 174z"/>
<path d="M4403 6045 c-48 -21 -121 -92 -134 -132 -26 -79 7 -199 73 -260 114
-107 285 -44 334 124 49 168 -120 335 -273 268z"/>
<path d="M5904 6036 c-119 -56 -158 -185 -93 -315 40 -80 87 -113 167 -119 50
-3 63 0 112 30 104 63 149 191 101 285 -39 77 -137 143 -212 143 -13 0 -47
-11 -75 -24z"/>
<path d="M5167 5681 c-14 -17 -27 -49 -31 -74 -9 -56 -24 -69 -73 -65 -34 3
-40 8 -68 58 -26 46 -36 55 -61 58 -25 2 -37 -4 -58 -28 -81 -97 48 -280 198
-280 39 0 111 35 136 67 l20 25 47 -40 c91 -76 171 -76 257 -1 58 51 86 104
86 162 0 48 -25 81 -71 92 -28 7 -41 -4 -68 -57 -22 -44 -61 -65 -98 -53 -21
8 -36 26 -59 74 -35 73 -55 91 -100 91 -23 0 -39 -8 -57 -29z"/>
<path d="M6907 5512 c-20 -22 -37 -66 -37 -97 0 -36 43 -79 120 -119 39 -21
101 -61 138 -89 81 -61 116 -66 162 -22 55 53 63 130 16 174 -12 11 -62 38
-112 60 -49 21 -116 55 -149 75 -66 40 -113 46 -138 18z"/>
<path d="M3328 5416 c-86 -45 -166 -90 -177 -100 -65 -59 -8 -176 87 -176 19
0 77 30 173 91 211 134 221 147 179 229 -32 63 -69 57 -262 -44z"/>
<path d="M5339 3903 c-13 -16 -12 -17 4 -4 16 13 21 21 13 21 -2 0 -10 -8 -17
-17z"/>
<path d="M3156 3412 c16 -16 55 -57 86 -93 31 -35 69 -77 83 -94 15 -16 0 6
-34 50 -75 100 -135 165 -151 165 -7 0 1 -13 16 -28z"/>
<path d="M5909 3403 l-24 -28 28 24 c15 14 27 26 27 28 0 8 -8 1 -31 -24z"/>
<path d="M5852 3338 c-15 -15 -16 -45 -2 -53 5 -3 7 0 4 9 -3 8 -1 24 6 35 12
24 10 27 -8 9z"/>
<path d="M3365 3170 c10 -11 20 -20 23 -20 3 0 -3 9 -13 20 -10 11 -20 20 -23
20 -3 0 3 -9 13 -20z"/>
<path d="M3390 3136 c0 -2 8 -10 18 -17 15 -13 16 -12 3 4 -13 16 -21 21 -21
13z"/>
<path d="M5638 3116 c-4 -19 -1 -22 13 -19 15 4 16 9 8 24 -13 25 -16 24 -21
-5z"/>
<path d="M3420 3096 c0 -2 8 -10 18 -17 15 -13 16 -12 3 4 -13 16 -21 21 -21
13z"/>
</g>
</svg>
